<mxfile host="app.diagrams.net" modified="2022-04-18T08:34:11.501Z" agent="5.0 (Macintosh; Intel Mac OS X 10_15_7) AppleWebKit/537.36 (KHTML, like Gecko) Chrome/100.0.4896.88 Safari/537.36" etag="SG8Fy36nneIQQDzzT_X7" version="17.4.3" type="github" pages="2">
  <diagram id="NSnVHFlnbRdvsbp_4luR" name="对应关系模型">
    <mxGraphModel dx="1554" dy="866" grid="1" gridSize="10" guides="1" tooltips="1" connect="1" arrows="1" fold="1" page="1" pageScale="1" pageWidth="827" pageHeight="1169" math="0" shadow="0">
      <root>
        <mxCell id="0" />
        <mxCell id="1" parent="0" />
        <mxCell id="-Q_E_Xpl-SCfFl2O35k6-1" value="" style="rounded=0;whiteSpace=wrap;html=1;fillColor=#d5e8d4;strokeColor=#82b366;" parent="1" vertex="1">
          <mxGeometry x="110" y="70" width="650" height="120" as="geometry" />
        </mxCell>
        <mxCell id="-Q_E_Xpl-SCfFl2O35k6-3" value="SaaS租户" style="rounded=0;whiteSpace=wrap;html=1;" parent="1" vertex="1">
          <mxGeometry x="138" y="55" width="70" height="30" as="geometry" />
        </mxCell>
        <mxCell id="-Q_E_Xpl-SCfFl2O35k6-4" value="SaaS组织1" style="rounded=0;whiteSpace=wrap;html=1;" parent="1" vertex="1">
          <mxGeometry x="188" y="100" width="110" height="30" as="geometry" />
        </mxCell>
        <mxCell id="-Q_E_Xpl-SCfFl2O35k6-5" value="零售云账号1" style="text;html=1;strokeColor=none;fillColor=none;align=center;verticalAlign=middle;whiteSpace=wrap;rounded=0;" parent="1" vertex="1">
          <mxGeometry x="160" y="150" width="60" height="30" as="geometry" />
        </mxCell>
        <mxCell id="-Q_E_Xpl-SCfFl2O35k6-11" value="" style="rounded=0;whiteSpace=wrap;html=1;fillColor=none;dashed=1;" parent="1" vertex="1">
          <mxGeometry x="130" y="140" width="610" height="40" as="geometry" />
        </mxCell>
        <mxCell id="-Q_E_Xpl-SCfFl2O35k6-6" value="零售云账号2" style="text;html=1;strokeColor=none;fillColor=none;align=center;verticalAlign=middle;whiteSpace=wrap;rounded=0;" parent="1" vertex="1">
          <mxGeometry x="521" y="150" width="60" height="30" as="geometry" />
        </mxCell>
        <mxCell id="-Q_E_Xpl-SCfFl2O35k6-7" value="零售云账号3" style="text;html=1;strokeColor=none;fillColor=none;align=center;verticalAlign=middle;whiteSpace=wrap;rounded=0;" parent="1" vertex="1">
          <mxGeometry x="650" y="150" width="60" height="30" as="geometry" />
        </mxCell>
        <mxCell id="-Q_E_Xpl-SCfFl2O35k6-8" value="&lt;span&gt;SaaS组织2&lt;/span&gt;" style="rounded=0;whiteSpace=wrap;html=1;" parent="1" vertex="1">
          <mxGeometry x="561" y="100" width="110" height="30" as="geometry" />
        </mxCell>
        <mxCell id="-Q_E_Xpl-SCfFl2O35k6-12" value="" style="endArrow=classic;html=1;rounded=0;entryX=0.427;entryY=0.983;entryDx=0;entryDy=0;entryPerimeter=0;exitX=0.142;exitY=0.25;exitDx=0;exitDy=0;exitPerimeter=0;" parent="1" source="-Q_E_Xpl-SCfFl2O35k6-11" target="-Q_E_Xpl-SCfFl2O35k6-4" edge="1">
          <mxGeometry width="50" height="50" relative="1" as="geometry">
            <mxPoint x="390" y="320" as="sourcePoint" />
            <mxPoint x="440" y="270" as="targetPoint" />
          </mxGeometry>
        </mxCell>
        <mxCell id="-Q_E_Xpl-SCfFl2O35k6-13" value="" style="endArrow=classic;html=1;rounded=0;entryX=0.25;entryY=1;entryDx=0;entryDy=0;exitX=0.5;exitY=0;exitDx=0;exitDy=0;" parent="1" source="-Q_E_Xpl-SCfFl2O35k6-6" target="-Q_E_Xpl-SCfFl2O35k6-8" edge="1">
          <mxGeometry width="50" height="50" relative="1" as="geometry">
            <mxPoint x="196.79999999999995" y="160" as="sourcePoint" />
            <mxPoint x="196.97000000000003" y="139.49" as="targetPoint" />
          </mxGeometry>
        </mxCell>
        <mxCell id="-Q_E_Xpl-SCfFl2O35k6-14" value="" style="endArrow=classic;html=1;rounded=0;entryX=0.75;entryY=1;entryDx=0;entryDy=0;exitX=0.5;exitY=0;exitDx=0;exitDy=0;" parent="1" source="-Q_E_Xpl-SCfFl2O35k6-7" target="-Q_E_Xpl-SCfFl2O35k6-8" edge="1">
          <mxGeometry width="50" height="50" relative="1" as="geometry">
            <mxPoint x="380" y="160" as="sourcePoint" />
            <mxPoint x="437.5" y="140" as="targetPoint" />
          </mxGeometry>
        </mxCell>
        <mxCell id="-Q_E_Xpl-SCfFl2O35k6-15" value="" style="rounded=0;whiteSpace=wrap;html=1;fillColor=#ffe6cc;strokeColor=#d79b00;" parent="1" vertex="1">
          <mxGeometry x="102" y="250" width="310" height="230" as="geometry" />
        </mxCell>
        <mxCell id="-Q_E_Xpl-SCfFl2O35k6-16" value="北汽租户" style="rounded=0;whiteSpace=wrap;html=1;" parent="1" vertex="1">
          <mxGeometry x="128" y="230" width="70" height="34" as="geometry" />
        </mxCell>
        <mxCell id="-Q_E_Xpl-SCfFl2O35k6-17" value="" style="rounded=0;whiteSpace=wrap;html=1;" parent="1" vertex="1">
          <mxGeometry x="118" y="390" width="142" height="70" as="geometry" />
        </mxCell>
        <mxCell id="-Q_E_Xpl-SCfFl2O35k6-19" value="" style="rounded=0;whiteSpace=wrap;html=1;fillColor=none;dashed=1;" parent="1" vertex="1">
          <mxGeometry x="120" y="335" width="280" height="40" as="geometry" />
        </mxCell>
        <mxCell id="-Q_E_Xpl-SCfFl2O35k6-18" value="零售云账号1" style="text;html=1;strokeColor=none;fillColor=none;align=center;verticalAlign=middle;whiteSpace=wrap;rounded=0;" parent="1" vertex="1">
          <mxGeometry x="147" y="341" width="60" height="30" as="geometry" />
        </mxCell>
        <mxCell id="-Q_E_Xpl-SCfFl2O35k6-20" value="零售云账号2" style="text;html=1;strokeColor=none;fillColor=none;align=center;verticalAlign=middle;whiteSpace=wrap;rounded=0;" parent="1" vertex="1">
          <mxGeometry x="233" y="340" width="60" height="30" as="geometry" />
        </mxCell>
        <mxCell id="-Q_E_Xpl-SCfFl2O35k6-21" value="零售云账号3" style="text;html=1;strokeColor=none;fillColor=none;align=center;verticalAlign=middle;whiteSpace=wrap;rounded=0;" parent="1" vertex="1">
          <mxGeometry x="323" y="340" width="60" height="30" as="geometry" />
        </mxCell>
        <mxCell id="-Q_E_Xpl-SCfFl2O35k6-22" value="" style="rounded=0;whiteSpace=wrap;html=1;" parent="1" vertex="1">
          <mxGeometry x="270" y="390" width="130" height="70" as="geometry" />
        </mxCell>
        <mxCell id="-Q_E_Xpl-SCfFl2O35k6-23" value="" style="endArrow=classic;html=1;rounded=0;entryX=0.617;entryY=-0.017;entryDx=0;entryDy=0;entryPerimeter=0;exitX=0.5;exitY=1;exitDx=0;exitDy=0;" parent="1" source="-Q_E_Xpl-SCfFl2O35k6-18" target="-Q_E_Xpl-SCfFl2O35k6-26" edge="1">
          <mxGeometry width="50" height="50" relative="1" as="geometry">
            <mxPoint x="173" y="370" as="sourcePoint" />
            <mxPoint x="430" y="465" as="targetPoint" />
          </mxGeometry>
        </mxCell>
        <mxCell id="-Q_E_Xpl-SCfFl2O35k6-24" value="" style="endArrow=classic;html=1;rounded=0;entryX=0.25;entryY=0;entryDx=0;entryDy=0;" parent="1" target="-Q_E_Xpl-SCfFl2O35k6-22" edge="1">
          <mxGeometry width="50" height="50" relative="1" as="geometry">
            <mxPoint x="280" y="370" as="sourcePoint" />
            <mxPoint x="186.97000000000003" y="334.49" as="targetPoint" />
          </mxGeometry>
        </mxCell>
        <mxCell id="-Q_E_Xpl-SCfFl2O35k6-25" value="" style="endArrow=classic;html=1;rounded=0;exitX=0.383;exitY=0.95;exitDx=0;exitDy=0;exitPerimeter=0;" parent="1" source="-Q_E_Xpl-SCfFl2O35k6-21" target="-Q_E_Xpl-SCfFl2O35k6-22" edge="1">
          <mxGeometry width="50" height="50" relative="1" as="geometry">
            <mxPoint x="370" y="355" as="sourcePoint" />
            <mxPoint x="427.5" y="335" as="targetPoint" />
          </mxGeometry>
        </mxCell>
        <mxCell id="-Q_E_Xpl-SCfFl2O35k6-26" value="北汽组织1" style="text;html=1;strokeColor=none;fillColor=none;align=center;verticalAlign=middle;whiteSpace=wrap;rounded=0;dashed=1;" parent="1" vertex="1">
          <mxGeometry x="152" y="390" width="60" height="30" as="geometry" />
        </mxCell>
        <mxCell id="-Q_E_Xpl-SCfFl2O35k6-27" value="北汽组织2" style="text;html=1;strokeColor=none;fillColor=none;align=center;verticalAlign=middle;whiteSpace=wrap;rounded=0;dashed=1;" parent="1" vertex="1">
          <mxGeometry x="302" y="390" width="60" height="30" as="geometry" />
        </mxCell>
        <mxCell id="-Q_E_Xpl-SCfFl2O35k6-28" value="零售云账号1" style="text;html=1;strokeColor=none;fillColor=none;align=center;verticalAlign=middle;whiteSpace=wrap;rounded=0;" parent="1" vertex="1">
          <mxGeometry x="120" y="422" width="60" height="30" as="geometry" />
        </mxCell>
        <mxCell id="-Q_E_Xpl-SCfFl2O35k6-29" value="专属账号" style="text;html=1;strokeColor=none;fillColor=none;align=center;verticalAlign=middle;whiteSpace=wrap;rounded=0;" parent="1" vertex="1">
          <mxGeometry x="186" y="422" width="60" height="30" as="geometry" />
        </mxCell>
        <mxCell id="-Q_E_Xpl-SCfFl2O35k6-30" value="零售云账号2" style="text;html=1;strokeColor=none;fillColor=none;align=center;verticalAlign=middle;whiteSpace=wrap;rounded=0;" parent="1" vertex="1">
          <mxGeometry x="276" y="420" width="60" height="30" as="geometry" />
        </mxCell>
        <mxCell id="-Q_E_Xpl-SCfFl2O35k6-31" value="零售云账号3" style="text;html=1;strokeColor=none;fillColor=none;align=center;verticalAlign=middle;whiteSpace=wrap;rounded=0;" parent="1" vertex="1">
          <mxGeometry x="340" y="420" width="60" height="30" as="geometry" />
        </mxCell>
        <mxCell id="-Q_E_Xpl-SCfFl2O35k6-32" value="" style="rounded=0;whiteSpace=wrap;html=1;" parent="1" vertex="1">
          <mxGeometry x="118" y="275" width="282" height="50" as="geometry" />
        </mxCell>
        <mxCell id="-Q_E_Xpl-SCfFl2O35k6-33" value="E端" style="text;html=1;strokeColor=none;fillColor=none;align=center;verticalAlign=middle;whiteSpace=wrap;rounded=0;dashed=1;" parent="1" vertex="1">
          <mxGeometry x="221" y="271" width="60" height="30" as="geometry" />
        </mxCell>
        <mxCell id="-Q_E_Xpl-SCfFl2O35k6-34" value="专属账号1" style="text;html=1;strokeColor=none;fillColor=none;align=center;verticalAlign=middle;whiteSpace=wrap;rounded=0;dashed=1;" parent="1" vertex="1">
          <mxGeometry x="128" y="295" width="60" height="30" as="geometry" />
        </mxCell>
        <mxCell id="-Q_E_Xpl-SCfFl2O35k6-35" value="专属账号2" style="text;html=1;strokeColor=none;fillColor=none;align=center;verticalAlign=middle;whiteSpace=wrap;rounded=0;dashed=1;" parent="1" vertex="1">
          <mxGeometry x="220" y="295" width="60" height="30" as="geometry" />
        </mxCell>
        <mxCell id="-Q_E_Xpl-SCfFl2O35k6-36" value="专属账号3" style="text;html=1;strokeColor=none;fillColor=none;align=center;verticalAlign=middle;whiteSpace=wrap;rounded=0;dashed=1;" parent="1" vertex="1">
          <mxGeometry x="320" y="295" width="60" height="30" as="geometry" />
        </mxCell>
        <mxCell id="-Q_E_Xpl-SCfFl2O35k6-37" value="" style="endArrow=classic;html=1;rounded=0;exitX=0.474;exitY=-0.017;exitDx=0;exitDy=0;exitPerimeter=0;" parent="1" source="-Q_E_Xpl-SCfFl2O35k6-15" edge="1">
          <mxGeometry width="50" height="50" relative="1" as="geometry">
            <mxPoint x="196.79999999999995" y="160" as="sourcePoint" />
            <mxPoint x="249" y="130" as="targetPoint" />
          </mxGeometry>
        </mxCell>
        <mxCell id="-Q_E_Xpl-SCfFl2O35k6-38" value="" style="endArrow=none;html=1;rounded=0;dashed=1;startArrow=none;" parent="1" edge="1">
          <mxGeometry width="50" height="50" relative="1" as="geometry">
            <mxPoint x="370" y="211" as="sourcePoint" />
            <mxPoint x="790" y="211" as="targetPoint" />
          </mxGeometry>
        </mxCell>
        <mxCell id="-Q_E_Xpl-SCfFl2O35k6-39" value="" style="rounded=0;whiteSpace=wrap;html=1;fillColor=#e1d5e7;strokeColor=#9673a6;" parent="1" vertex="1">
          <mxGeometry x="450" y="249" width="310" height="230" as="geometry" />
        </mxCell>
        <mxCell id="-Q_E_Xpl-SCfFl2O35k6-40" value="宜宾租户" style="rounded=0;whiteSpace=wrap;html=1;" parent="1" vertex="1">
          <mxGeometry x="658" y="230" width="70" height="34" as="geometry" />
        </mxCell>
        <mxCell id="-Q_E_Xpl-SCfFl2O35k6-41" value="" style="rounded=0;whiteSpace=wrap;html=1;" parent="1" vertex="1">
          <mxGeometry x="466" y="389" width="142" height="70" as="geometry" />
        </mxCell>
        <mxCell id="-Q_E_Xpl-SCfFl2O35k6-42" value="" style="rounded=0;whiteSpace=wrap;html=1;fillColor=none;dashed=1;" parent="1" vertex="1">
          <mxGeometry x="468" y="334" width="280" height="40" as="geometry" />
        </mxCell>
        <mxCell id="-Q_E_Xpl-SCfFl2O35k6-43" value="零售云账号1" style="text;html=1;strokeColor=none;fillColor=none;align=center;verticalAlign=middle;whiteSpace=wrap;rounded=0;" parent="1" vertex="1">
          <mxGeometry x="495" y="340" width="60" height="30" as="geometry" />
        </mxCell>
        <mxCell id="-Q_E_Xpl-SCfFl2O35k6-44" value="零售云账号2" style="text;html=1;strokeColor=none;fillColor=none;align=center;verticalAlign=middle;whiteSpace=wrap;rounded=0;" parent="1" vertex="1">
          <mxGeometry x="581" y="339" width="60" height="30" as="geometry" />
        </mxCell>
        <mxCell id="-Q_E_Xpl-SCfFl2O35k6-45" value="零售云账号3" style="text;html=1;strokeColor=none;fillColor=none;align=center;verticalAlign=middle;whiteSpace=wrap;rounded=0;" parent="1" vertex="1">
          <mxGeometry x="671" y="339" width="60" height="30" as="geometry" />
        </mxCell>
        <mxCell id="-Q_E_Xpl-SCfFl2O35k6-46" value="" style="rounded=0;whiteSpace=wrap;html=1;" parent="1" vertex="1">
          <mxGeometry x="618" y="389" width="130" height="70" as="geometry" />
        </mxCell>
        <mxCell id="-Q_E_Xpl-SCfFl2O35k6-47" value="" style="endArrow=classic;html=1;rounded=0;entryX=0.617;entryY=-0.017;entryDx=0;entryDy=0;entryPerimeter=0;exitX=0.5;exitY=1;exitDx=0;exitDy=0;" parent="1" source="-Q_E_Xpl-SCfFl2O35k6-43" target="-Q_E_Xpl-SCfFl2O35k6-50" edge="1">
          <mxGeometry width="50" height="50" relative="1" as="geometry">
            <mxPoint x="521" y="369" as="sourcePoint" />
            <mxPoint x="778" y="464" as="targetPoint" />
          </mxGeometry>
        </mxCell>
        <mxCell id="-Q_E_Xpl-SCfFl2O35k6-48" value="" style="endArrow=classic;html=1;rounded=0;entryX=0.25;entryY=0;entryDx=0;entryDy=0;" parent="1" target="-Q_E_Xpl-SCfFl2O35k6-46" edge="1">
          <mxGeometry width="50" height="50" relative="1" as="geometry">
            <mxPoint x="628" y="369" as="sourcePoint" />
            <mxPoint x="534.97" y="333.49" as="targetPoint" />
          </mxGeometry>
        </mxCell>
        <mxCell id="-Q_E_Xpl-SCfFl2O35k6-49" value="" style="endArrow=classic;html=1;rounded=0;exitX=0.383;exitY=0.95;exitDx=0;exitDy=0;exitPerimeter=0;" parent="1" source="-Q_E_Xpl-SCfFl2O35k6-45" target="-Q_E_Xpl-SCfFl2O35k6-46" edge="1">
          <mxGeometry width="50" height="50" relative="1" as="geometry">
            <mxPoint x="718" y="354" as="sourcePoint" />
            <mxPoint x="775.5" y="334" as="targetPoint" />
          </mxGeometry>
        </mxCell>
        <mxCell id="-Q_E_Xpl-SCfFl2O35k6-50" value="宜宾组织1" style="text;html=1;strokeColor=none;fillColor=none;align=center;verticalAlign=middle;whiteSpace=wrap;rounded=0;dashed=1;" parent="1" vertex="1">
          <mxGeometry x="500" y="389" width="60" height="30" as="geometry" />
        </mxCell>
        <mxCell id="-Q_E_Xpl-SCfFl2O35k6-51" value="宜宾组织2" style="text;html=1;strokeColor=none;fillColor=none;align=center;verticalAlign=middle;whiteSpace=wrap;rounded=0;dashed=1;" parent="1" vertex="1">
          <mxGeometry x="650" y="389" width="60" height="30" as="geometry" />
        </mxCell>
        <mxCell id="-Q_E_Xpl-SCfFl2O35k6-52" value="零售云账号1" style="text;html=1;strokeColor=none;fillColor=none;align=center;verticalAlign=middle;whiteSpace=wrap;rounded=0;" parent="1" vertex="1">
          <mxGeometry x="468" y="421" width="60" height="30" as="geometry" />
        </mxCell>
        <mxCell id="-Q_E_Xpl-SCfFl2O35k6-53" value="专属账号" style="text;html=1;strokeColor=none;fillColor=none;align=center;verticalAlign=middle;whiteSpace=wrap;rounded=0;" parent="1" vertex="1">
          <mxGeometry x="534" y="421" width="60" height="30" as="geometry" />
        </mxCell>
        <mxCell id="-Q_E_Xpl-SCfFl2O35k6-54" value="零售云账号2" style="text;html=1;strokeColor=none;fillColor=none;align=center;verticalAlign=middle;whiteSpace=wrap;rounded=0;" parent="1" vertex="1">
          <mxGeometry x="624" y="419" width="60" height="30" as="geometry" />
        </mxCell>
        <mxCell id="-Q_E_Xpl-SCfFl2O35k6-55" value="零售云账号3" style="text;html=1;strokeColor=none;fillColor=none;align=center;verticalAlign=middle;whiteSpace=wrap;rounded=0;" parent="1" vertex="1">
          <mxGeometry x="688" y="419" width="60" height="30" as="geometry" />
        </mxCell>
        <mxCell id="-Q_E_Xpl-SCfFl2O35k6-56" value="" style="rounded=0;whiteSpace=wrap;html=1;" parent="1" vertex="1">
          <mxGeometry x="466" y="274" width="282" height="50" as="geometry" />
        </mxCell>
        <mxCell id="-Q_E_Xpl-SCfFl2O35k6-57" value="E端" style="text;html=1;strokeColor=none;fillColor=none;align=center;verticalAlign=middle;whiteSpace=wrap;rounded=0;dashed=1;" parent="1" vertex="1">
          <mxGeometry x="569" y="270" width="60" height="30" as="geometry" />
        </mxCell>
        <mxCell id="-Q_E_Xpl-SCfFl2O35k6-58" value="专属账号1" style="text;html=1;strokeColor=none;fillColor=none;align=center;verticalAlign=middle;whiteSpace=wrap;rounded=0;dashed=1;" parent="1" vertex="1">
          <mxGeometry x="476" y="294" width="60" height="30" as="geometry" />
        </mxCell>
        <mxCell id="-Q_E_Xpl-SCfFl2O35k6-59" value="专属账号2" style="text;html=1;strokeColor=none;fillColor=none;align=center;verticalAlign=middle;whiteSpace=wrap;rounded=0;dashed=1;" parent="1" vertex="1">
          <mxGeometry x="568" y="294" width="60" height="30" as="geometry" />
        </mxCell>
        <mxCell id="-Q_E_Xpl-SCfFl2O35k6-60" value="专属账号3" style="text;html=1;strokeColor=none;fillColor=none;align=center;verticalAlign=middle;whiteSpace=wrap;rounded=0;dashed=1;" parent="1" vertex="1">
          <mxGeometry x="668" y="294" width="60" height="30" as="geometry" />
        </mxCell>
        <mxCell id="-Q_E_Xpl-SCfFl2O35k6-61" value="" style="endArrow=classic;html=1;rounded=0;exitX=0.474;exitY=-0.017;exitDx=0;exitDy=0;exitPerimeter=0;" parent="1" edge="1">
          <mxGeometry width="50" height="50" relative="1" as="geometry">
            <mxPoint x="618" y="246.09000000000003" as="sourcePoint" />
            <mxPoint x="618.06" y="130" as="targetPoint" />
          </mxGeometry>
        </mxCell>
        <mxCell id="-Q_E_Xpl-SCfFl2O35k6-62" value="" style="endArrow=none;html=1;rounded=0;dashed=1;" parent="1" edge="1">
          <mxGeometry width="50" height="50" relative="1" as="geometry">
            <mxPoint x="430" y="510" as="sourcePoint" />
            <mxPoint x="430" y="220" as="targetPoint" />
          </mxGeometry>
        </mxCell>
        <mxCell id="-Q_E_Xpl-SCfFl2O35k6-63" value="逻辑隔离" style="text;html=1;strokeColor=none;fillColor=none;align=center;verticalAlign=middle;whiteSpace=wrap;rounded=0;dashed=1;" parent="1" vertex="1">
          <mxGeometry x="305" y="198" width="60" height="30" as="geometry" />
        </mxCell>
        <mxCell id="-Q_E_Xpl-SCfFl2O35k6-64" value="" style="endArrow=none;html=1;rounded=0;dashed=1;" parent="1" edge="1">
          <mxGeometry width="50" height="50" relative="1" as="geometry">
            <mxPoint x="70" y="211" as="sourcePoint" />
            <mxPoint x="300" y="211" as="targetPoint" />
          </mxGeometry>
        </mxCell>
        <mxCell id="-Q_E_Xpl-SCfFl2O35k6-65" value="逻&lt;br&gt;辑&lt;br&gt;隔&lt;br&gt;离" style="text;html=1;strokeColor=none;fillColor=none;align=center;verticalAlign=middle;whiteSpace=wrap;rounded=0;dashed=1;" parent="1" vertex="1">
          <mxGeometry x="408" y="335" width="60" height="30" as="geometry" />
        </mxCell>
        <mxCell id="-Q_E_Xpl-SCfFl2O35k6-66" value="" style="rounded=0;whiteSpace=wrap;html=1;fillColor=#f8cecc;strokeColor=#b85450;" parent="1" vertex="1">
          <mxGeometry x="850" y="249" width="290" height="231" as="geometry" />
        </mxCell>
        <mxCell id="-Q_E_Xpl-SCfFl2O35k6-67" value="CCO Org" style="rounded=0;whiteSpace=wrap;html=1;" parent="1" vertex="1">
          <mxGeometry x="880" y="230" width="70" height="34" as="geometry" />
        </mxCell>
        <mxCell id="-Q_E_Xpl-SCfFl2O35k6-68" value="租户" style="rounded=0;whiteSpace=wrap;html=1;" parent="1" vertex="1">
          <mxGeometry x="870" y="402.5" width="100" height="45" as="geometry" />
        </mxCell>
        <mxCell id="-Q_E_Xpl-SCfFl2O35k6-69" value="租户" style="rounded=0;whiteSpace=wrap;html=1;" parent="1" vertex="1">
          <mxGeometry x="1020" y="403" width="100" height="45" as="geometry" />
        </mxCell>
        <mxCell id="-Q_E_Xpl-SCfFl2O35k6-70" value="账号1" style="text;html=1;strokeColor=none;fillColor=none;align=center;verticalAlign=middle;whiteSpace=wrap;rounded=0;" parent="1" vertex="1">
          <mxGeometry x="874" y="339" width="60" height="30" as="geometry" />
        </mxCell>
        <mxCell id="-Q_E_Xpl-SCfFl2O35k6-71" value="账号2" style="text;html=1;strokeColor=none;fillColor=none;align=center;verticalAlign=middle;whiteSpace=wrap;rounded=0;" parent="1" vertex="1">
          <mxGeometry x="965" y="338" width="60" height="30" as="geometry" />
        </mxCell>
        <mxCell id="-Q_E_Xpl-SCfFl2O35k6-72" value="账号3" style="text;html=1;strokeColor=none;fillColor=none;align=center;verticalAlign=middle;whiteSpace=wrap;rounded=0;" parent="1" vertex="1">
          <mxGeometry x="1060" y="337" width="60" height="30" as="geometry" />
        </mxCell>
        <mxCell id="-Q_E_Xpl-SCfFl2O35k6-75" value="" style="endArrow=classic;startArrow=classic;html=1;rounded=0;dashed=1;" parent="1" edge="1">
          <mxGeometry width="50" height="50" relative="1" as="geometry">
            <mxPoint x="630" y="350" as="sourcePoint" />
            <mxPoint x="680" y="300" as="targetPoint" />
          </mxGeometry>
        </mxCell>
        <mxCell id="-Q_E_Xpl-SCfFl2O35k6-76" value="" style="endArrow=classic;startArrow=classic;html=1;rounded=0;dashed=1;entryX=0;entryY=0.5;entryDx=0;entryDy=0;" parent="1" target="-Q_E_Xpl-SCfFl2O35k6-68" edge="1">
          <mxGeometry width="50" height="50" relative="1" as="geometry">
            <mxPoint x="748" y="425" as="sourcePoint" />
            <mxPoint x="870" y="418" as="targetPoint" />
          </mxGeometry>
        </mxCell>
        <mxCell id="-Q_E_Xpl-SCfFl2O35k6-77" value="" style="endArrow=classic;startArrow=classic;html=1;rounded=0;dashed=1;entryX=0;entryY=0.5;entryDx=0;entryDy=0;" parent="1" target="-Q_E_Xpl-SCfFl2O35k6-78" edge="1">
          <mxGeometry width="50" height="50" relative="1" as="geometry">
            <mxPoint x="748" y="353.5" as="sourcePoint" />
            <mxPoint x="870" y="353.5" as="targetPoint" />
          </mxGeometry>
        </mxCell>
        <mxCell id="-Q_E_Xpl-SCfFl2O35k6-78" value="" style="rounded=0;whiteSpace=wrap;html=1;fillColor=none;dashed=1;" parent="1" vertex="1">
          <mxGeometry x="855" y="333" width="280" height="40" as="geometry" />
        </mxCell>
        <mxCell id="-Q_E_Xpl-SCfFl2O35k6-79" value="" style="endArrow=classic;startArrow=classic;html=1;rounded=0;dashed=1;entryX=0;entryY=0.25;entryDx=0;entryDy=0;" parent="1" target="-Q_E_Xpl-SCfFl2O35k6-67" edge="1">
          <mxGeometry width="50" height="50" relative="1" as="geometry">
            <mxPoint x="728" y="240.5" as="sourcePoint" />
            <mxPoint x="835" y="240" as="targetPoint" />
          </mxGeometry>
        </mxCell>
        <mxCell id="-Q_E_Xpl-SCfFl2O35k6-80" value="映射" style="text;html=1;strokeColor=none;fillColor=none;align=center;verticalAlign=middle;whiteSpace=wrap;rounded=0;dashed=1;" parent="1" vertex="1">
          <mxGeometry x="770" y="234" width="60" height="30" as="geometry" />
        </mxCell>
        <mxCell id="-Q_E_Xpl-SCfFl2O35k6-82" value="映射" style="text;html=1;strokeColor=none;fillColor=none;align=center;verticalAlign=middle;whiteSpace=wrap;rounded=0;dashed=1;" parent="1" vertex="1">
          <mxGeometry x="770" y="349" width="60" height="30" as="geometry" />
        </mxCell>
        <mxCell id="-Q_E_Xpl-SCfFl2O35k6-83" value="映射" style="text;html=1;strokeColor=none;fillColor=none;align=center;verticalAlign=middle;whiteSpace=wrap;rounded=0;dashed=1;" parent="1" vertex="1">
          <mxGeometry x="771" y="417.5" width="60" height="30" as="geometry" />
        </mxCell>
      </root>
    </mxGraphModel>
  </diagram>
  <diagram id="OO2gFGmACMeSLeDJG6NV" name="第 2 页">
    <mxGraphModel dx="1554" dy="866" grid="1" gridSize="10" guides="1" tooltips="1" connect="1" arrows="1" fold="1" page="1" pageScale="1" pageWidth="827" pageHeight="1169" math="0" shadow="0">
      <root>
        <mxCell id="0" />
        <mxCell id="1" parent="0" />
        <mxCell id="97seXPKVwc1LNhrxOEZ3-1" value="" style="rounded=0;whiteSpace=wrap;html=1;fillColor=#e1d5e7;strokeColor=#9673a6;" vertex="1" parent="1">
          <mxGeometry x="68" y="259" width="310" height="230" as="geometry" />
        </mxCell>
        <mxCell id="97seXPKVwc1LNhrxOEZ3-2" value="宜宾租户" style="rounded=0;whiteSpace=wrap;html=1;" vertex="1" parent="1">
          <mxGeometry x="276" y="240" width="70" height="34" as="geometry" />
        </mxCell>
        <mxCell id="97seXPKVwc1LNhrxOEZ3-3" value="" style="rounded=0;whiteSpace=wrap;html=1;" vertex="1" parent="1">
          <mxGeometry x="84" y="399" width="142" height="70" as="geometry" />
        </mxCell>
        <mxCell id="97seXPKVwc1LNhrxOEZ3-4" value="" style="rounded=0;whiteSpace=wrap;html=1;fillColor=none;dashed=1;" vertex="1" parent="1">
          <mxGeometry x="86" y="344" width="280" height="40" as="geometry" />
        </mxCell>
        <mxCell id="97seXPKVwc1LNhrxOEZ3-5" value="零售云账号1" style="text;html=1;strokeColor=none;fillColor=none;align=center;verticalAlign=middle;whiteSpace=wrap;rounded=0;" vertex="1" parent="1">
          <mxGeometry x="113" y="350" width="60" height="30" as="geometry" />
        </mxCell>
        <mxCell id="97seXPKVwc1LNhrxOEZ3-6" value="零售云账号2" style="text;html=1;strokeColor=none;fillColor=none;align=center;verticalAlign=middle;whiteSpace=wrap;rounded=0;" vertex="1" parent="1">
          <mxGeometry x="199" y="349" width="60" height="30" as="geometry" />
        </mxCell>
        <mxCell id="97seXPKVwc1LNhrxOEZ3-7" value="零售云账号3" style="text;html=1;strokeColor=none;fillColor=none;align=center;verticalAlign=middle;whiteSpace=wrap;rounded=0;" vertex="1" parent="1">
          <mxGeometry x="289" y="349" width="60" height="30" as="geometry" />
        </mxCell>
        <mxCell id="97seXPKVwc1LNhrxOEZ3-8" value="" style="rounded=0;whiteSpace=wrap;html=1;" vertex="1" parent="1">
          <mxGeometry x="236" y="399" width="130" height="70" as="geometry" />
        </mxCell>
        <mxCell id="97seXPKVwc1LNhrxOEZ3-9" value="" style="endArrow=classic;html=1;rounded=0;entryX=0.617;entryY=-0.017;entryDx=0;entryDy=0;entryPerimeter=0;exitX=0.5;exitY=1;exitDx=0;exitDy=0;" edge="1" parent="1" source="97seXPKVwc1LNhrxOEZ3-5" target="97seXPKVwc1LNhrxOEZ3-12">
          <mxGeometry width="50" height="50" relative="1" as="geometry">
            <mxPoint x="139" y="379" as="sourcePoint" />
            <mxPoint x="396" y="474" as="targetPoint" />
          </mxGeometry>
        </mxCell>
        <mxCell id="97seXPKVwc1LNhrxOEZ3-10" value="" style="endArrow=classic;html=1;rounded=0;entryX=0.25;entryY=0;entryDx=0;entryDy=0;" edge="1" parent="1" target="97seXPKVwc1LNhrxOEZ3-8">
          <mxGeometry width="50" height="50" relative="1" as="geometry">
            <mxPoint x="246" y="379" as="sourcePoint" />
            <mxPoint x="152.97000000000003" y="343.49" as="targetPoint" />
          </mxGeometry>
        </mxCell>
        <mxCell id="97seXPKVwc1LNhrxOEZ3-11" value="" style="endArrow=classic;html=1;rounded=0;exitX=0.383;exitY=0.95;exitDx=0;exitDy=0;exitPerimeter=0;" edge="1" parent="1" source="97seXPKVwc1LNhrxOEZ3-7" target="97seXPKVwc1LNhrxOEZ3-8">
          <mxGeometry width="50" height="50" relative="1" as="geometry">
            <mxPoint x="336" y="364" as="sourcePoint" />
            <mxPoint x="393.5" y="344" as="targetPoint" />
          </mxGeometry>
        </mxCell>
        <mxCell id="97seXPKVwc1LNhrxOEZ3-12" value="宜宾组织1" style="text;html=1;strokeColor=none;fillColor=none;align=center;verticalAlign=middle;whiteSpace=wrap;rounded=0;dashed=1;" vertex="1" parent="1">
          <mxGeometry x="118" y="399" width="60" height="30" as="geometry" />
        </mxCell>
        <mxCell id="97seXPKVwc1LNhrxOEZ3-13" value="宜宾组织2" style="text;html=1;strokeColor=none;fillColor=none;align=center;verticalAlign=middle;whiteSpace=wrap;rounded=0;dashed=1;" vertex="1" parent="1">
          <mxGeometry x="268" y="399" width="60" height="30" as="geometry" />
        </mxCell>
        <mxCell id="97seXPKVwc1LNhrxOEZ3-14" value="零售云账号1" style="text;html=1;strokeColor=none;fillColor=none;align=center;verticalAlign=middle;whiteSpace=wrap;rounded=0;" vertex="1" parent="1">
          <mxGeometry x="86" y="431" width="60" height="30" as="geometry" />
        </mxCell>
        <mxCell id="97seXPKVwc1LNhrxOEZ3-15" value="专属账号" style="text;html=1;strokeColor=none;fillColor=none;align=center;verticalAlign=middle;whiteSpace=wrap;rounded=0;" vertex="1" parent="1">
          <mxGeometry x="152" y="431" width="60" height="30" as="geometry" />
        </mxCell>
        <mxCell id="97seXPKVwc1LNhrxOEZ3-16" value="零售云账号2" style="text;html=1;strokeColor=none;fillColor=none;align=center;verticalAlign=middle;whiteSpace=wrap;rounded=0;" vertex="1" parent="1">
          <mxGeometry x="242" y="429" width="60" height="30" as="geometry" />
        </mxCell>
        <mxCell id="97seXPKVwc1LNhrxOEZ3-17" value="零售云账号3" style="text;html=1;strokeColor=none;fillColor=none;align=center;verticalAlign=middle;whiteSpace=wrap;rounded=0;" vertex="1" parent="1">
          <mxGeometry x="306" y="429" width="60" height="30" as="geometry" />
        </mxCell>
        <mxCell id="97seXPKVwc1LNhrxOEZ3-18" value="" style="rounded=0;whiteSpace=wrap;html=1;" vertex="1" parent="1">
          <mxGeometry x="84" y="284" width="282" height="50" as="geometry" />
        </mxCell>
        <mxCell id="97seXPKVwc1LNhrxOEZ3-19" value="E端" style="text;html=1;strokeColor=none;fillColor=none;align=center;verticalAlign=middle;whiteSpace=wrap;rounded=0;dashed=1;" vertex="1" parent="1">
          <mxGeometry x="187" y="280" width="60" height="30" as="geometry" />
        </mxCell>
        <mxCell id="97seXPKVwc1LNhrxOEZ3-20" value="专属账号1" style="text;html=1;strokeColor=none;fillColor=none;align=center;verticalAlign=middle;whiteSpace=wrap;rounded=0;dashed=1;" vertex="1" parent="1">
          <mxGeometry x="94" y="304" width="60" height="30" as="geometry" />
        </mxCell>
        <mxCell id="97seXPKVwc1LNhrxOEZ3-21" value="专属账号2" style="text;html=1;strokeColor=none;fillColor=none;align=center;verticalAlign=middle;whiteSpace=wrap;rounded=0;dashed=1;" vertex="1" parent="1">
          <mxGeometry x="186" y="304" width="60" height="30" as="geometry" />
        </mxCell>
        <mxCell id="97seXPKVwc1LNhrxOEZ3-22" value="专属账号3" style="text;html=1;strokeColor=none;fillColor=none;align=center;verticalAlign=middle;whiteSpace=wrap;rounded=0;dashed=1;" vertex="1" parent="1">
          <mxGeometry x="286" y="304" width="60" height="30" as="geometry" />
        </mxCell>
        <mxCell id="97seXPKVwc1LNhrxOEZ3-23" value="" style="rounded=0;whiteSpace=wrap;html=1;fillColor=#f8cecc;strokeColor=#b85450;" vertex="1" parent="1">
          <mxGeometry x="468" y="259" width="290" height="231" as="geometry" />
        </mxCell>
        <mxCell id="97seXPKVwc1LNhrxOEZ3-24" value="CCO Org" style="rounded=0;whiteSpace=wrap;html=1;" vertex="1" parent="1">
          <mxGeometry x="498" y="240" width="70" height="34" as="geometry" />
        </mxCell>
        <mxCell id="97seXPKVwc1LNhrxOEZ3-25" value="" style="rounded=0;whiteSpace=wrap;html=1;" vertex="1" parent="1">
          <mxGeometry x="490" y="400" width="110" height="70" as="geometry" />
        </mxCell>
        <mxCell id="97seXPKVwc1LNhrxOEZ3-26" value="" style="rounded=0;whiteSpace=wrap;html=1;" vertex="1" parent="1">
          <mxGeometry x="630" y="400" width="110" height="70" as="geometry" />
        </mxCell>
        <mxCell id="97seXPKVwc1LNhrxOEZ3-33" value="" style="rounded=0;whiteSpace=wrap;html=1;fillColor=none;dashed=1;" vertex="1" parent="1">
          <mxGeometry x="488" y="343" width="250" height="40" as="geometry" />
        </mxCell>
        <mxCell id="97seXPKVwc1LNhrxOEZ3-27" value="账号1" style="text;html=1;strokeColor=none;fillColor=none;align=center;verticalAlign=middle;whiteSpace=wrap;rounded=0;" vertex="1" parent="1">
          <mxGeometry x="492" y="349" width="60" height="30" as="geometry" />
        </mxCell>
        <mxCell id="97seXPKVwc1LNhrxOEZ3-28" value="账号2" style="text;html=1;strokeColor=none;fillColor=none;align=center;verticalAlign=middle;whiteSpace=wrap;rounded=0;" vertex="1" parent="1">
          <mxGeometry x="583" y="348" width="60" height="30" as="geometry" />
        </mxCell>
        <mxCell id="97seXPKVwc1LNhrxOEZ3-29" value="账号3" style="text;html=1;strokeColor=none;fillColor=none;align=center;verticalAlign=middle;whiteSpace=wrap;rounded=0;" vertex="1" parent="1">
          <mxGeometry x="678" y="347" width="60" height="30" as="geometry" />
        </mxCell>
        <mxCell id="97seXPKVwc1LNhrxOEZ3-31" value="" style="endArrow=classic;startArrow=classic;html=1;rounded=0;dashed=1;entryX=0;entryY=0.5;entryDx=0;entryDy=0;" edge="1" parent="1" target="97seXPKVwc1LNhrxOEZ3-25">
          <mxGeometry width="50" height="50" relative="1" as="geometry">
            <mxPoint x="366" y="435" as="sourcePoint" />
            <mxPoint x="488" y="428" as="targetPoint" />
          </mxGeometry>
        </mxCell>
        <mxCell id="97seXPKVwc1LNhrxOEZ3-32" value="" style="endArrow=classic;startArrow=classic;html=1;rounded=0;dashed=1;entryX=0;entryY=0.5;entryDx=0;entryDy=0;" edge="1" parent="1" target="97seXPKVwc1LNhrxOEZ3-33">
          <mxGeometry width="50" height="50" relative="1" as="geometry">
            <mxPoint x="366" y="363.5" as="sourcePoint" />
            <mxPoint x="488" y="363.5" as="targetPoint" />
          </mxGeometry>
        </mxCell>
        <mxCell id="97seXPKVwc1LNhrxOEZ3-34" value="" style="endArrow=classic;startArrow=classic;html=1;rounded=0;dashed=1;entryX=0;entryY=0.25;entryDx=0;entryDy=0;" edge="1" parent="1" target="97seXPKVwc1LNhrxOEZ3-24">
          <mxGeometry width="50" height="50" relative="1" as="geometry">
            <mxPoint x="346" y="250.5" as="sourcePoint" />
            <mxPoint x="453" y="250" as="targetPoint" />
          </mxGeometry>
        </mxCell>
        <mxCell id="97seXPKVwc1LNhrxOEZ3-35" value="映射" style="text;html=1;strokeColor=none;fillColor=none;align=center;verticalAlign=middle;whiteSpace=wrap;rounded=0;dashed=1;" vertex="1" parent="1">
          <mxGeometry x="388" y="244" width="60" height="30" as="geometry" />
        </mxCell>
        <mxCell id="97seXPKVwc1LNhrxOEZ3-36" value="映射" style="text;html=1;strokeColor=none;fillColor=none;align=center;verticalAlign=middle;whiteSpace=wrap;rounded=0;dashed=1;" vertex="1" parent="1">
          <mxGeometry x="388" y="359" width="60" height="30" as="geometry" />
        </mxCell>
        <mxCell id="97seXPKVwc1LNhrxOEZ3-37" value="映射" style="text;html=1;strokeColor=none;fillColor=none;align=center;verticalAlign=middle;whiteSpace=wrap;rounded=0;dashed=1;" vertex="1" parent="1">
          <mxGeometry x="389" y="427.5" width="60" height="30" as="geometry" />
        </mxCell>
        <mxCell id="97seXPKVwc1LNhrxOEZ3-40" value="" style="endArrow=classic;html=1;rounded=0;" edge="1" parent="1" target="97seXPKVwc1LNhrxOEZ3-25">
          <mxGeometry width="50" height="50" relative="1" as="geometry">
            <mxPoint x="528" y="370" as="sourcePoint" />
            <mxPoint x="398" y="420" as="targetPoint" />
          </mxGeometry>
        </mxCell>
        <mxCell id="97seXPKVwc1LNhrxOEZ3-41" value="" style="endArrow=classic;html=1;rounded=0;entryX=0.5;entryY=0;entryDx=0;entryDy=0;" edge="1" parent="1" source="97seXPKVwc1LNhrxOEZ3-28" target="97seXPKVwc1LNhrxOEZ3-26">
          <mxGeometry width="50" height="50" relative="1" as="geometry">
            <mxPoint x="538" y="380" as="sourcePoint" />
            <mxPoint x="544.5384615384614" y="422.5" as="targetPoint" />
          </mxGeometry>
        </mxCell>
        <mxCell id="97seXPKVwc1LNhrxOEZ3-42" value="" style="endArrow=classic;html=1;rounded=0;exitX=0.5;exitY=0.767;exitDx=0;exitDy=0;exitPerimeter=0;" edge="1" parent="1" source="97seXPKVwc1LNhrxOEZ3-29">
          <mxGeometry width="50" height="50" relative="1" as="geometry">
            <mxPoint x="548" y="390" as="sourcePoint" />
            <mxPoint x="708" y="400" as="targetPoint" />
          </mxGeometry>
        </mxCell>
        <mxCell id="97seXPKVwc1LNhrxOEZ3-43" value="&lt;span style=&quot;background-color: rgb(255 , 255 , 204)&quot;&gt;初始租户0&lt;/span&gt;" style="text;html=1;strokeColor=none;fillColor=none;align=center;verticalAlign=middle;whiteSpace=wrap;rounded=0;dashed=1;" vertex="1" parent="1">
          <mxGeometry x="673" y="329" width="60" height="30" as="geometry" />
        </mxCell>
        <mxCell id="97seXPKVwc1LNhrxOEZ3-44" value="" style="rounded=0;whiteSpace=wrap;html=1;" vertex="1" parent="1">
          <mxGeometry x="483" y="284" width="255" height="45" as="geometry" />
        </mxCell>
        <mxCell id="97seXPKVwc1LNhrxOEZ3-45" value="E端租户" style="text;html=1;strokeColor=none;fillColor=none;align=center;verticalAlign=middle;whiteSpace=wrap;rounded=0;dashed=1;" vertex="1" parent="1">
          <mxGeometry x="578" y="280" width="60" height="30" as="geometry" />
        </mxCell>
        <mxCell id="97seXPKVwc1LNhrxOEZ3-46" value="员工账号2" style="text;html=1;strokeColor=none;fillColor=none;align=center;verticalAlign=middle;whiteSpace=wrap;rounded=0;dashed=1;" vertex="1" parent="1">
          <mxGeometry x="580" y="302" width="60" height="30" as="geometry" />
        </mxCell>
        <mxCell id="97seXPKVwc1LNhrxOEZ3-47" value="员工账号3" style="text;html=1;strokeColor=none;fillColor=none;align=center;verticalAlign=middle;whiteSpace=wrap;rounded=0;dashed=1;" vertex="1" parent="1">
          <mxGeometry x="658" y="303" width="60" height="30" as="geometry" />
        </mxCell>
        <mxCell id="97seXPKVwc1LNhrxOEZ3-48" value="员工账号1" style="text;html=1;strokeColor=none;fillColor=none;align=center;verticalAlign=middle;whiteSpace=wrap;rounded=0;dashed=1;" vertex="1" parent="1">
          <mxGeometry x="498" y="302" width="60" height="30" as="geometry" />
        </mxCell>
        <mxCell id="97seXPKVwc1LNhrxOEZ3-49" value="" style="endArrow=classic;startArrow=classic;html=1;rounded=0;dashed=1;entryX=0;entryY=0.5;entryDx=0;entryDy=0;" edge="1" parent="1">
          <mxGeometry width="50" height="50" relative="1" as="geometry">
            <mxPoint x="361" y="310.5" as="sourcePoint" />
            <mxPoint x="483" y="310" as="targetPoint" />
          </mxGeometry>
        </mxCell>
        <mxCell id="97seXPKVwc1LNhrxOEZ3-50" value="E端映射" style="text;html=1;strokeColor=none;fillColor=none;align=center;verticalAlign=middle;whiteSpace=wrap;rounded=0;dashed=1;" vertex="1" parent="1">
          <mxGeometry x="389" y="304" width="60" height="30" as="geometry" />
        </mxCell>
        <mxCell id="97seXPKVwc1LNhrxOEZ3-51" value="1. JNOS零售云账号，对应CCO租户0下的账号（租户0是初始创建，用于管理零售云账号）&lt;br style=&quot;font-size: 15px;&quot;&gt;2. JNOS零售云账号创建组织N，对应CCO创建租户N并关联账号到该租户N&lt;br style=&quot;font-size: 15px;&quot;&gt;3. JNOS邀请零售云账号N到组织N，对应CCO关联账号N到租户N&lt;br style=&quot;font-size: 15px;&quot;&gt;4. JNOS专属账号，对应租户N内的员工账号&lt;br style=&quot;font-size: 15px;&quot;&gt;5. E端组织，对应CCO租户，账号都为员工账号" style="text;html=1;strokeColor=none;fillColor=none;align=left;verticalAlign=middle;whiteSpace=wrap;rounded=0;labelBackgroundColor=#FFFFCC;fontSize=15;spacingTop=0;horizontal=1;" vertex="1" parent="1">
          <mxGeometry x="70" y="520" width="660" height="100" as="geometry" />
        </mxCell>
        <mxCell id="97seXPKVwc1LNhrxOEZ3-52" value="租户1" style="text;html=1;strokeColor=none;fillColor=none;align=center;verticalAlign=middle;whiteSpace=wrap;rounded=0;dashed=1;" vertex="1" parent="1">
          <mxGeometry x="520" y="404" width="60" height="30" as="geometry" />
        </mxCell>
        <mxCell id="97seXPKVwc1LNhrxOEZ3-53" value="账号1" style="text;html=1;strokeColor=none;fillColor=none;align=center;verticalAlign=middle;whiteSpace=wrap;rounded=0;" vertex="1" parent="1">
          <mxGeometry x="488" y="436" width="60" height="30" as="geometry" />
        </mxCell>
        <mxCell id="97seXPKVwc1LNhrxOEZ3-54" value="员工账号" style="text;html=1;strokeColor=none;fillColor=none;align=center;verticalAlign=middle;whiteSpace=wrap;rounded=0;" vertex="1" parent="1">
          <mxGeometry x="544" y="434" width="60" height="30" as="geometry" />
        </mxCell>
        <mxCell id="97seXPKVwc1LNhrxOEZ3-55" value="租户2" style="text;html=1;strokeColor=none;fillColor=none;align=center;verticalAlign=middle;whiteSpace=wrap;rounded=0;dashed=1;" vertex="1" parent="1">
          <mxGeometry x="656" y="403" width="60" height="30" as="geometry" />
        </mxCell>
        <mxCell id="97seXPKVwc1LNhrxOEZ3-56" value="账号2" style="text;html=1;strokeColor=none;fillColor=none;align=center;verticalAlign=middle;whiteSpace=wrap;rounded=0;" vertex="1" parent="1">
          <mxGeometry x="624" y="435" width="60" height="30" as="geometry" />
        </mxCell>
        <mxCell id="97seXPKVwc1LNhrxOEZ3-57" value="账号3" style="text;html=1;strokeColor=none;fillColor=none;align=center;verticalAlign=middle;whiteSpace=wrap;rounded=0;" vertex="1" parent="1">
          <mxGeometry x="680" y="433" width="60" height="30" as="geometry" />
        </mxCell>
      </root>
    </mxGraphModel>
  </diagram>
</mxfile>
